<svg width="119" height="64" viewBox="0 0 119 64" fill="none" xmlns="http://www.w3.org/2000/svg">
<path d="M0.8302 15.7585V52.3834H105.355L118.626 63.994V15.7585H0.8302ZM29.0083 38.2491C28.7306 38.7683 28.3562 39.1909 27.8853 39.517C27.4144 39.837 26.877 40.0725 26.2611 40.2234C25.6513 40.3683 25.0053 40.4468 24.3411 40.4468C23.3087 40.4468 22.2944 40.2898 21.2861 39.9819C20.2838 39.674 19.3781 39.2332 18.5811 38.6657L19.7585 36.3653C19.8732 36.48 20.0845 36.6309 20.3864 36.8181C20.6883 37.0053 21.0445 37.1925 21.4611 37.3796C21.8717 37.5668 22.3306 37.7238 22.8317 37.8506C23.3328 37.9774 23.8461 38.0438 24.3774 38.0438C25.8445 38.0438 26.5811 37.5728 26.5811 36.6309C26.5811 36.3351 26.4966 36.0815 26.3276 35.8762C26.1585 35.6709 25.923 35.4898 25.6151 35.3328C25.3072 35.1758 24.9328 35.037 24.4921 34.9102C24.0513 34.7834 23.5623 34.6385 23.0249 34.4875C22.3668 34.3064 21.7993 34.1132 21.3162 33.8958C20.8332 33.6845 20.4287 33.4309 20.1087 33.1411C19.7887 32.8513 19.5472 32.5192 19.3842 32.1389C19.2211 31.7585 19.1427 31.3057 19.1427 30.7743C19.1427 30.08 19.2694 29.4581 19.5291 28.9208C19.7887 28.3834 20.1449 27.9306 20.6038 27.5683C21.0627 27.206 21.594 26.9343 22.1977 26.7472C22.8015 26.56 23.4536 26.4694 24.1479 26.4694C25.114 26.4694 26.0015 26.6204 26.8166 26.9223C27.6257 27.2242 28.3381 27.5804 28.9419 27.997L27.7645 30.1585C27.674 30.0679 27.511 29.9472 27.2694 29.7902C27.0279 29.6332 26.7381 29.4823 26.4 29.3374C26.0559 29.1864 25.6876 29.0657 25.2891 28.963C24.8906 28.8604 24.4861 28.806 24.0694 28.806C23.3328 28.806 22.7894 28.9389 22.4272 29.2106C22.0649 29.4823 21.8838 29.8626 21.8838 30.3517C21.8838 30.6355 21.9502 30.8709 22.0891 31.0581C22.2279 31.2453 22.4211 31.4083 22.6808 31.5532C22.9404 31.6981 23.2664 31.8249 23.6589 31.9396C24.0513 32.0543 24.5042 32.1811 25.0234 32.3079C25.6936 32.4891 26.3034 32.6823 26.8468 32.8875C27.3962 33.0928 27.8551 33.3525 28.2355 33.6604C28.6159 33.9683 28.9117 34.3426 29.117 34.7713C29.3223 35.206 29.4249 35.7374 29.4249 36.3653C29.4249 37.1019 29.286 37.7298 29.0083 38.2491ZM41.1683 40.2898C40.9087 40.3381 40.6974 40.3743 40.5223 40.3864C40.3472 40.3985 40.1902 40.4045 40.0513 40.4045C39.5864 40.4045 39.2121 40.2958 38.9223 40.0845C38.6325 39.8732 38.4634 39.5774 38.4091 39.203L38.3487 38.394C37.8959 39.0883 37.3162 39.6136 36.6098 39.9577C35.9034 40.3079 35.1245 40.477 34.2732 40.477C33.2287 40.477 32.4377 40.1449 31.8944 39.4747C31.351 38.8045 31.0853 37.8143 31.0853 36.4981V30.1585H33.6755V35.9366C33.6755 37.4943 34.237 38.2732 35.354 38.2732C35.8551 38.2732 36.3442 38.1223 36.8151 37.8204C37.286 37.5185 37.6664 37.0596 37.9623 36.4377V30.1585H40.5525V37.3072C40.5525 37.5789 40.6008 37.7721 40.6974 37.8868C40.794 38.0015 40.951 38.0679 41.1683 38.08V40.2838V40.2898ZM49.1502 32.4045C48.3653 32.4166 47.6649 32.5675 47.043 32.8574C46.4272 33.1472 45.9804 33.5819 45.7087 34.1615V40.2838H43.1185V30.1585H45.4974V32.32C45.6785 31.9698 45.8898 31.6619 46.1374 31.3842C46.3849 31.1064 46.6445 30.8649 46.9283 30.6596C47.2121 30.4543 47.4959 30.2974 47.7857 30.1887C48.0755 30.08 48.3532 30.0257 48.6249 30.0257H48.9449C49.0174 30.0257 49.0838 30.0317 49.1502 30.0438V32.3985V32.4045ZM56.1238 40.2898H53.3223L49.591 30.1645H52.2596L54.8317 38.1826L57.4219 30.1645H59.8551L56.1238 40.2898ZM70.8377 35.6709C70.8317 35.8279 70.8136 35.9547 70.7895 36.0574H62.9645C63.0008 36.4558 63.0974 36.8121 63.2544 37.12C63.4113 37.4279 63.6106 37.6936 63.8521 37.9109C64.0936 38.1283 64.3713 38.2974 64.6853 38.4121C64.9932 38.5268 65.3132 38.5872 65.6513 38.5872C66.1645 38.5872 66.6536 38.4604 67.1125 38.2128C67.5713 37.9592 67.8793 37.6332 68.0483 37.2166L70.2702 37.8325C69.8959 38.6053 69.2981 39.2392 68.483 39.7343C67.6619 40.2294 66.6898 40.477 65.5547 40.477C64.7457 40.477 64.0091 40.3381 63.351 40.0604C62.6928 39.7826 62.1313 39.4083 61.6725 38.9313C61.2076 38.4543 60.8513 37.8989 60.5977 37.2709C60.3442 36.643 60.2234 35.9789 60.2234 35.2785C60.2234 34.5781 60.3442 33.8777 60.5917 33.2377C60.8393 32.5977 61.1894 32.0423 61.6544 31.5592C62.1193 31.0762 62.6808 30.6958 63.3449 30.4121C64.0091 30.1283 64.7517 29.9894 65.5789 29.9894C66.4061 29.9894 67.1427 30.1343 67.7887 30.4121C68.4408 30.6958 68.9902 31.0762 69.4491 31.5532C69.9079 32.0302 70.2521 32.5857 70.4936 33.2136C70.7291 33.8475 70.8498 34.4996 70.8498 35.1819C70.8498 35.3509 70.8498 35.5079 70.8377 35.6649V35.6709ZM75.8732 44.0392C75.2815 44.4921 74.5449 44.7155 73.6694 44.7155C73.4642 44.7155 73.2528 44.6974 73.0415 44.6672C72.8302 44.637 72.6068 44.5826 72.3774 44.5042V42.2642C72.5947 42.3306 72.806 42.3789 73.0174 42.4091C73.2227 42.4392 73.3978 42.4574 73.5366 42.4574C73.7057 42.4574 73.8566 42.4272 74.0015 42.3608C74.1404 42.2943 74.2732 42.1857 74.3879 42.0226C74.5027 41.8596 74.6174 41.6423 74.7381 41.3585C74.8528 41.0747 74.9736 40.7185 75.1064 40.2958L71.1094 30.1706H73.7781L76.5193 38.0558L78.9525 30.1706H81.3857L77.1351 42.3064C76.8876 43.0128 76.471 43.5925 75.8793 44.0453L75.8732 44.0392ZM88.3351 33.5457C88.3351 34.5902 88.2808 35.5381 88.1721 36.3955C88.0634 37.2528 87.834 37.9834 87.4777 38.5872C87.1215 39.1909 86.6143 39.6619 85.9442 40C85.274 40.3381 84.3744 40.5011 83.2393 40.5011C82.1042 40.5011 81.0898 40.2174 80.2626 39.6498L80.8604 37.4883C81.0415 37.6151 81.3434 37.76 81.7661 37.9109C82.1887 38.0679 82.6777 38.1404 83.2332 38.1404C83.7887 38.1404 84.2053 38.0498 84.5253 37.8626C84.8453 37.6755 85.0928 37.3917 85.2559 37.0053C85.4189 36.6189 85.5336 36.1419 85.5819 35.5683C85.6302 34.9947 85.6604 34.3245 85.6604 33.5517V26.5781H88.3291V33.5517L88.3351 33.5457ZM100.459 38.2491C100.181 38.7683 99.8068 39.1909 99.3359 39.517C98.8649 39.837 98.3215 40.0725 97.7117 40.2234C97.1019 40.3683 96.4559 40.4468 95.7917 40.4468C94.7593 40.4468 93.7449 40.2898 92.7366 39.9819C91.7344 39.674 90.8287 39.2332 90.0317 38.6657L91.2091 36.3653C91.3238 36.48 91.5351 36.6309 91.837 36.8181C92.1389 37.0053 92.4951 37.1925 92.9117 37.3796C93.3223 37.5668 93.7811 37.7238 94.2823 37.8506C94.7834 37.9774 95.2966 38.0438 95.8279 38.0438C97.2951 38.0438 98.0317 37.5728 98.0317 36.6309C98.0317 36.3351 97.9472 36.0815 97.7781 35.8762C97.6091 35.6709 97.3736 35.4898 97.0657 35.3328C96.7578 35.1758 96.3834 35.037 95.9427 34.9102C95.5019 34.7834 95.0128 34.6385 94.4755 34.4875C93.8174 34.3064 93.2498 34.1132 92.7668 33.8958C92.2838 33.6845 91.8793 33.4309 91.5593 33.1411C91.2393 32.8513 90.9977 32.5192 90.8347 32.1389C90.6717 31.7585 90.5932 31.3057 90.5932 30.7743C90.5932 30.08 90.72 29.4581 90.9796 28.9208C91.2393 28.3774 91.5955 27.9306 92.0544 27.5683C92.5132 27.206 93.0445 26.9343 93.6483 26.7472C94.2521 26.56 94.9042 26.4694 95.5985 26.4694C96.5645 26.4694 97.4521 26.6204 98.2672 26.9223C99.0762 27.2242 99.7887 27.5804 100.392 27.997L99.2151 30.1585C99.1245 30.0679 98.9615 29.9472 98.72 29.7902C98.4785 29.6332 98.1887 29.4823 97.8506 29.3374C97.5064 29.1864 97.1381 29.0657 96.7396 28.963C96.3411 28.8604 95.9366 28.806 95.52 28.806C94.7834 28.806 94.24 28.9389 93.8777 29.2106C93.5155 29.4823 93.3344 29.8626 93.3344 30.3517C93.3344 30.6355 93.4008 30.8709 93.5396 31.0581C93.6725 31.2453 93.8717 31.4083 94.1313 31.5532C94.391 31.6921 94.711 31.8249 95.1094 31.9396C95.5019 32.0543 95.9547 32.1811 96.474 32.3079C97.1442 32.4891 97.754 32.6823 98.2974 32.8875C98.8468 33.0928 99.3057 33.3525 99.6861 33.6604C100.066 33.9683 100.356 34.3426 100.568 34.7713C100.773 35.206 100.875 35.7374 100.875 36.3653C100.875 37.1019 100.737 37.7298 100.459 38.2491ZM67.3419 32.5494C67.837 33.0083 68.1208 33.6181 68.1811 34.3728H62.9283C62.9525 33.9985 63.043 33.6604 63.1879 33.3464C63.3389 33.0385 63.5261 32.7728 63.7555 32.5555C63.9849 32.3381 64.2566 32.163 64.5585 32.0423C64.8604 31.9215 65.1864 31.8611 65.5366 31.8611C66.243 31.8611 66.8468 32.0906 67.3419 32.5494ZM3.3902 5.94113H5.41888C5.81133 5.94113 6.1736 5.86264 6.50567 5.69962C6.83775 5.5366 7.11548 5.32528 7.35096 5.05962C7.58643 4.79396 7.76756 4.49208 7.89435 4.14792C8.02114 3.80377 8.08756 3.45358 8.08756 3.09132C8.08756 2.72906 8.02114 2.40302 7.88228 2.05887C7.74341 1.71472 7.55624 1.41283 7.31473 1.14113C7.07322 0.869434 6.78341 0.652075 6.45133 0.489057C6.11926 0.326038 5.75096 0.241509 5.3585 0.241509H1.72379V8.81509H3.3902V5.94113ZM3.3902 1.70264H5.24982C5.39473 1.70264 5.53963 1.73283 5.6785 1.79321C5.81737 1.85359 5.94416 1.94415 6.0468 2.06491C6.14945 2.18566 6.23397 2.33057 6.30039 2.50566C6.3668 2.68075 6.39699 2.87396 6.39699 3.09132C6.39699 3.52 6.29435 3.85811 6.08907 4.10566C5.88379 4.35321 5.6302 4.48 5.32228 4.48H3.3902V1.70264ZM9.4702 7.9517C9.75397 8.25358 10.1042 8.49509 10.5147 8.67019C10.9253 8.84528 11.3902 8.93585 11.9034 8.93585C12.4166 8.93585 12.8815 8.84528 13.2921 8.67019C13.7027 8.49509 14.0468 8.25358 14.3306 7.9517C14.6144 7.64981 14.8317 7.29962 14.9827 6.90717C15.1336 6.51472 15.2121 6.09811 15.2121 5.6634C15.2121 5.22868 15.1336 4.8 14.9827 4.40755C14.8317 4.01509 14.6083 3.66491 14.3245 3.36302C14.0408 3.06113 13.6906 2.81962 13.286 2.64453C12.8815 2.46943 12.4166 2.37887 11.9034 2.37887C11.3902 2.37887 10.9253 2.46943 10.5147 2.64453C10.1042 2.81962 9.75397 3.06113 9.4702 3.36302C9.18643 3.66491 8.96303 4.01509 8.81209 4.40755C8.66114 4.8 8.58265 5.22264 8.58265 5.6634C8.58265 6.10415 8.66114 6.51472 8.81209 6.90717C8.96303 7.29962 9.18643 7.64981 9.4702 7.9517ZM10.3759 4.90264C10.4604 4.66717 10.5751 4.46792 10.726 4.29887C10.877 4.12981 11.0521 3.99698 11.2513 3.90038C11.4506 3.80377 11.6679 3.75547 11.9034 3.75547C12.1389 3.75547 12.3562 3.80377 12.5555 3.89434C12.7547 3.98491 12.9298 4.11774 13.0808 4.28679C13.2317 4.45585 13.3464 4.65509 13.431 4.89057C13.5155 5.12604 13.5577 5.37962 13.5577 5.65132C13.5577 5.92302 13.5155 6.18868 13.431 6.42415C13.3464 6.65962 13.2317 6.85887 13.0808 7.02793C12.9298 7.19698 12.7547 7.32981 12.5555 7.42038C12.3562 7.51094 12.1389 7.55925 11.9034 7.55925C11.6679 7.55925 11.4506 7.51094 11.2513 7.42038C11.0521 7.32981 10.877 7.19698 10.726 7.02793C10.5751 6.85887 10.4604 6.65962 10.3759 6.43019C10.2913 6.20075 10.2491 5.94717 10.2491 5.6634C10.2491 5.37962 10.2913 5.13811 10.3759 4.90264ZM17.9894 8.81509L15.357 2.48755H16.8785L18.7623 7.29358L19.5351 5.24076L18.4242 2.49962H19.7283L20.3925 4.44377L21.0687 2.49962H22.3728L21.274 5.24076L22.0347 7.29358L23.9185 2.48755H25.4521L22.8076 8.81509H21.4793L20.3925 6.03774L19.3177 8.81509H17.9894ZM26.4785 7.96981C26.7683 8.26566 27.1185 8.50113 27.5291 8.67623C27.9396 8.85132 28.3985 8.93585 28.9057 8.93585C29.6121 8.93585 30.2219 8.77887 30.7351 8.47094C31.2483 8.16302 31.6166 7.76453 31.8521 7.28151L30.4634 6.89509C30.3608 7.15472 30.1615 7.36 29.8777 7.51698C29.594 7.67396 29.286 7.75245 28.966 7.75245C28.7547 7.75245 28.5555 7.71623 28.3623 7.64377C28.1691 7.57132 27.994 7.46868 27.843 7.32981C27.6921 7.19094 27.5653 7.02792 27.4687 6.83472C27.3721 6.64151 27.3117 6.41811 27.2876 6.17057H32.1781C32.1962 6.10415 32.2023 6.02566 32.2083 5.92906C32.2083 5.83245 32.2144 5.72981 32.2144 5.62717C32.2144 5.19849 32.1419 4.78792 31.991 4.39547C31.84 4.00302 31.6227 3.65283 31.3389 3.35698C31.0551 3.06113 30.7049 2.81962 30.3004 2.64453C29.8959 2.46943 29.431 2.37887 28.9177 2.37887C28.4045 2.37887 27.9396 2.46943 27.523 2.64453C27.1064 2.81962 26.7562 3.06113 26.4664 3.36302C26.1766 3.66491 25.9532 4.01509 25.8023 4.41358C25.6513 4.81208 25.5728 5.23472 25.5728 5.68755C25.5728 6.14038 25.6513 6.53887 25.8083 6.93132C25.9653 7.32377 26.1887 7.67396 26.4785 7.96981ZM27.4264 4.48C27.517 4.28679 27.6377 4.12377 27.7827 3.98491C27.9276 3.84604 28.0966 3.7434 28.2838 3.66491C28.471 3.58642 28.6762 3.55019 28.8936 3.55019C29.3344 3.55019 29.7147 3.69509 30.0227 3.97887C30.3306 4.26264 30.5057 4.64302 30.5479 5.12H27.2634C27.2815 4.88453 27.3359 4.67321 27.4264 4.48ZM34.8227 8.81509H33.2045V2.48755H34.6898V3.84C34.8045 3.62264 34.9374 3.42943 35.0883 3.25434C35.2393 3.07925 35.4083 2.9283 35.5834 2.80151C35.7585 2.67472 35.9396 2.57208 36.1208 2.50566C36.3019 2.43925 36.477 2.40302 36.646 2.40302H36.8453C36.8876 2.40302 36.9298 2.40302 36.9721 2.41509V3.8883C36.483 3.89434 36.0423 3.99094 35.6559 4.17208C35.2694 4.35321 34.9917 4.62491 34.8227 4.98717V8.81509ZM38.071 7.96981C38.3608 8.26566 38.711 8.50113 39.1215 8.67623C39.5321 8.85132 39.991 8.93585 40.4981 8.93585C41.2045 8.93585 41.8144 8.77887 42.3276 8.47094C42.8408 8.16302 43.2091 7.76453 43.4445 7.28151L42.0559 6.89509C41.9532 7.15472 41.754 7.36 41.4702 7.51698C41.1864 7.67396 40.8785 7.75245 40.5585 7.75245C40.3472 7.75245 40.1479 7.71623 39.9547 7.64377C39.7615 7.57132 39.5864 7.46868 39.4355 7.32981C39.2845 7.19094 39.1577 7.02792 39.0611 6.83472C38.9645 6.64151 38.9042 6.41811 38.88 6.17057H43.7706C43.7887 6.10415 43.7947 6.02566 43.8008 5.92906C43.8008 5.83245 43.8068 5.72981 43.8068 5.62717C43.8068 5.19849 43.7344 4.78792 43.5834 4.39547C43.4325 4.00302 43.2151 3.65283 42.9313 3.35698C42.6476 3.06113 42.2974 2.81962 41.8928 2.64453C41.4883 2.46943 41.0234 2.37887 40.5102 2.37887C39.997 2.37887 39.5321 2.46943 39.1155 2.64453C38.6989 2.81962 38.3487 3.06113 38.0589 3.36302C37.7691 3.66491 37.5457 4.01509 37.3947 4.41358C37.2438 4.81208 37.1653 5.23472 37.1653 5.68755C37.1653 6.14038 37.2438 6.53887 37.4008 6.93132C37.5577 7.32377 37.7811 7.67396 38.071 7.96981ZM39.0189 4.48C39.1094 4.28679 39.2302 4.12377 39.3751 3.98491C39.52 3.84604 39.6891 3.7434 39.8762 3.66491C40.0634 3.58642 40.2687 3.55019 40.486 3.55019C40.9268 3.55019 41.3072 3.69509 41.6151 3.97887C41.923 4.26264 42.0981 4.64302 42.1404 5.12H38.8559C38.874 4.88453 38.9283 4.67321 39.0189 4.48ZM45.2559 7.98189C45.5215 8.27774 45.8415 8.51321 46.2098 8.68226C46.5781 8.85132 46.9827 8.93585 47.4174 8.93585C47.8521 8.93585 48.2687 8.83321 48.6672 8.62792C49.0657 8.42264 49.3796 8.12075 49.6151 7.71623L49.6513 8.11472C49.6755 8.35019 49.7781 8.53736 49.9653 8.68226C50.1525 8.82717 50.3879 8.89962 50.6777 8.89962C50.8528 8.89962 51.0823 8.86943 51.366 8.81509V7.43849C51.2272 7.43245 51.1306 7.39019 51.0762 7.31774C51.0219 7.24528 50.9917 7.12453 50.9917 6.95547V0H49.3736V3.59849C49.1623 3.23623 48.8725 2.94038 48.4981 2.71698C48.1238 2.49358 47.7011 2.37887 47.2362 2.37887C46.8257 2.37887 46.4453 2.4634 46.1011 2.63245C45.757 2.80151 45.4551 3.03698 45.2076 3.33283C44.96 3.62868 44.7608 3.97887 44.6219 4.37132C44.483 4.76377 44.4106 5.19245 44.4106 5.65132C44.4106 6.11019 44.483 6.53887 44.634 6.93736C44.7849 7.33585 44.9902 7.68604 45.2559 7.98189ZM46.2098 4.96302C46.2883 4.72755 46.403 4.52226 46.5479 4.34113C46.6928 4.16 46.8679 4.01509 47.0732 3.91245C47.2785 3.80981 47.5019 3.75547 47.7434 3.75547C47.9064 3.75547 48.0694 3.78566 48.2325 3.85208C48.3955 3.91849 48.5525 4.00302 48.7034 4.1117C48.8544 4.22038 48.9872 4.34717 49.1019 4.49811C49.2166 4.64906 49.3072 4.81208 49.3736 4.98717V6.4966C49.3193 6.64755 49.2347 6.79245 49.126 6.91925C49.0174 7.04604 48.8966 7.16076 48.7577 7.25736C48.6189 7.35396 48.474 7.42642 48.311 7.48075C48.1479 7.53509 47.991 7.55925 47.84 7.55925C47.5804 7.55925 47.3449 7.51094 47.1336 7.41434C46.9223 7.31774 46.7351 7.18491 46.5842 7.01585C46.4332 6.84679 46.3125 6.64755 46.2219 6.42415C46.1313 6.20076 46.0891 5.95321 46.0891 5.68755C46.0891 5.44 46.1313 5.19849 46.2098 4.96302ZM56.8966 7.71623C57.114 8.0966 57.4098 8.39245 57.7902 8.60981C58.1706 8.82717 58.5993 8.93585 59.0823 8.93585C59.4989 8.93585 59.8913 8.85132 60.2536 8.68226C60.6159 8.51321 60.9298 8.28377 61.1955 7.98792C61.4611 7.69208 61.6664 7.34792 61.8174 6.95547C61.9683 6.56302 62.0408 6.13434 62.0408 5.67547C62.0408 5.2166 61.9744 4.81208 61.8415 4.40755C61.7087 4.00302 61.5215 3.65283 61.274 3.35698C61.0264 3.06113 60.7366 2.81962 60.3985 2.64453C60.0604 2.46943 59.6861 2.37887 59.2755 2.37887C58.7864 2.37887 58.3577 2.48755 57.9894 2.69887C57.6211 2.91019 57.3253 3.21208 57.1019 3.59849V0H55.4838V8.81509H56.8966V7.71623ZM57.1019 4.98717C57.2528 4.64302 57.4762 4.34717 57.76 4.1117C58.0438 3.87623 58.3698 3.75547 58.7321 3.75547C58.9736 3.75547 59.197 3.80981 59.3962 3.91245C59.5955 4.01509 59.7706 4.16 59.9215 4.33509C60.0725 4.51019 60.1872 4.71547 60.2657 4.95094C60.3442 5.18642 60.3864 5.42792 60.3864 5.68755C60.3864 5.94717 60.3442 6.18868 60.2596 6.41208C60.1751 6.63547 60.0543 6.83472 59.9034 7.00377C59.7525 7.17283 59.5653 7.30566 59.3479 7.4083C59.1306 7.51094 58.8951 7.55925 58.6355 7.55925C58.4845 7.55925 58.3276 7.53509 58.1645 7.48075C58.0015 7.42642 57.8566 7.35396 57.7178 7.2634C57.5789 7.17283 57.4581 7.05811 57.3494 6.93132C57.2408 6.80453 57.1562 6.65962 57.1019 6.4966V4.98717ZM64.7577 8.81509L62.2581 2.48755H63.9245L65.6393 7.41434L67.1608 2.48755H68.6823L66.0257 10.0709C65.8747 10.5117 65.6091 10.874 65.2408 11.1577C64.8725 11.4415 64.4136 11.5804 63.8642 11.5804C63.7374 11.5804 63.6045 11.5683 63.4717 11.5502C63.3389 11.5321 63.2 11.4958 63.0551 11.4475V10.0468C63.194 10.0891 63.3268 10.1192 63.4536 10.1374C63.5804 10.1555 63.6891 10.1675 63.7796 10.1675C63.8823 10.1675 63.9789 10.1494 64.0694 10.1072C64.16 10.0649 64.2385 9.99849 64.311 9.89585C64.3834 9.79321 64.4559 9.65434 64.5283 9.47925C64.6008 9.30415 64.6793 9.08076 64.7577 8.81509Z" fill="#19B394"/>
</svg>
