<?xml version="1.0" ?><!DOCTYPE svg  PUBLIC '-//W3C//DTD SVG 1.1//EN'  'http://www.w3.org/Graphics/SVG/1.1/DTD/svg11.dtd'><svg enable-background="new 0 0 500 500" height="500px" id="Layer_1" version="1.1" viewBox="0 0 500 500" width="500px" xml:space="preserve" xmlns="http://www.w3.org/2000/svg" xmlns:xlink="http://www.w3.org/1999/xlink"><path clip-rule="evenodd" d="M468.051,410.264c-50.695,31.348-109.576,48.702-167.718,48.702  c-25.615,0-50.696-2.633-74.955-9.086c-16.714-4.719-29.891-18.443-29.891-36.341c0-10.805,4.725-20.617,12.268-27.254h-3.181  c-20.079,0-36.343-16.267-36.343-36.346c0-20.078,16.264-36.34,36.343-36.34h-18.173c-20.079,0-36.34-16.262-36.34-36.341  s16.262-36.344,36.34-36.344H68.29c-20.077,0-36.34-16.262-36.34-36.34c0-20.079,16.264-36.343,36.34-36.343h207.246  c10.08,0,18.172-8.17,18.172-18.17c0-1.723-0.287-3.365-0.729-4.908l-20.905-51.426c-2.449-4.906-3.901-10.442-3.901-16.351  c0-20.079,16.262-36.342,36.341-36.342c15.085,0,28.072,9.264,33.621,22.35c30.429,58.968,67.774,106.214,129.917,139.281V410.264z" fill="#010101" fill-rule="evenodd"/></svg>